<?xml version="1.0" encoding="UTF-8" standalone="no"?>
<!DOCTYPE svg PUBLIC "-//W3C//DTD SVG 1.1//EN" "http://www.w3.org/Graphics/SVG/1.1/DTD/svg11.dtd">
<svg width="100%" height="100%" viewBox="0 0 1000 1000" version="1.1" xmlns="http://www.w3.org/2000/svg" xmlns:xlink="http://www.w3.org/1999/xlink" xml:space="preserve" xmlns:serif="http://www.serif.com/" style="fill-rule:evenodd;clip-rule:evenodd;">
    <g transform="matrix(1,0,0,1,-2806,-236)">
        <g id="Artboard2" transform="matrix(1.15473,0,0,1.43678,-434.185,-103.08)">
            <rect x="2806" y="236" width="866" height="696" style="fill:none;"/>
            <g id="logo" transform="matrix(1.08699,0,0,0.855288,2876.88,463.856)">
                <g id="Rectangle-23---Rectangle-24---Rectangle-24-Copy" serif:id="Rectangle-23-+-Rectangle-24-+-Rectangle-24-Copy" transform="matrix(1,0,0,1,268,172)">
                    <rect id="Rectangle-23" x="0" y="0" width="72" height="108" style="fill:rgb(255,105,180);"/>
                    <rect id="Rectangle-24" x="2" y="0" width="64" height="26" style="fill:rgb(185,63,123);"/>
                    <rect id="Rectangle-24-Copy" x="2" y="82" width="73" height="26" style="fill:rgb(185,63,123);"/>
                </g>
                <g id="A" transform="matrix(1,0,0,1,0,14)">
                    <path id="path5919" d="M0.535,126.863C0.535,196.528 56.914,253 126.464,253C127.077,253 127.686,252.963 128.295,252.963L269.674,252.925L269.674,171.042L128.295,171.042L126.733,171.042C102.063,171.091 82.283,151.279 82.283,126.837C82.283,102.396 102.063,82.557 126.464,82.557C127.081,82.557 128.287,82.553 128.295,82.556L128.295,0.727C127.686,0.719 127.077,0.701 126.464,0.701C56.914,0.727 0.535,57.199 0.535,126.863Z" style="fill:rgb(255,105,180);stroke:rgb(106,35,70);stroke-width:26px;"/>
                    <path id="path5921" d="M197.478,36.431C197.478,16.487 213.638,0.319 233.582,0.319L269.685,0.319L269.685,120.952L197.478,120.952L197.478,36.431Z" style="fill:rgb(255,105,180);stroke:rgb(106,35,70);stroke-width:26px;"/>
                </g>
                <g id="Rectangle-6">
                    <path d="M446,73L537.5,73L537.5,280L491.7,277.967C466.46,276.846 446,255.456 446,230.189L446,73Z" style="fill:rgb(255,105,180);"/>
                    <path d="M537.5,280L491.7,277.967L491.404,277.953L491.109,277.937L490.814,277.919L490.52,277.899L490.226,277.878L489.933,277.855L489.64,277.83L489.348,277.803L489.056,277.774L488.765,277.744L488.474,277.711L488.184,277.677L487.894,277.641L487.604,277.604L487.316,277.564L487.027,277.523L486.739,277.48L486.452,277.435L486.165,277.389L485.879,277.341L485.594,277.291L485.309,277.239L485.024,277.186L484.74,277.131L484.457,277.074L484.174,277.015L483.892,276.955L483.61,276.893L483.329,276.829L483.049,276.764L482.769,276.697L482.49,276.628L482.211,276.558L481.933,276.486L481.656,276.412L481.379,276.337L481.103,276.26L480.828,276.181L480.553,276.101L480.279,276.019L480.005,275.936L479.732,275.851L479.46,275.764L479.189,275.676L478.918,275.586L478.648,275.494L478.379,275.401L478.11,275.307L477.842,275.21L477.575,275.113L477.308,275.013L477.043,274.912L476.777,274.81L476.513,274.706L476.249,274.6L475.987,274.493L475.725,274.384L475.463,274.274L475.203,274.163L474.943,274.05L474.684,273.935L474.425,273.819L474.168,273.701L473.911,273.582L473.655,273.461L473.4,273.339L473.146,273.216L472.893,273.091L472.64,272.964L472.388,272.836L472.137,272.707L471.887,272.576L471.638,272.444L471.389,272.31L471.142,272.175L470.895,272.038L470.649,271.9L470.404,271.761L470.16,271.62L469.917,271.478L469.674,271.335L469.433,271.19L469.192,271.043L468.952,270.896L468.714,270.747L468.476,270.596L468.239,270.445L468.003,270.292L467.768,270.137L467.534,269.981L467.3,269.824L467.068,269.666L466.837,269.506L466.606,269.345L466.377,269.183L466.149,269.019L465.921,268.854L465.695,268.688L465.469,268.521L465.245,268.352L465.021,268.182L464.799,268.011L464.577,267.838L464.357,267.664L464.137,267.489L463.919,267.313L463.702,267.135L463.485,266.957L463.27,266.777L463.056,266.596L462.843,266.413L462.63,266.23L462.419,266.045L462.209,265.859L462,265.672L461.793,265.483L461.586,265.294L461.38,265.103L461.176,264.911L460.972,264.718L460.77,264.524L460.569,264.329L460.369,264.132L460.17,263.934L459.972,263.736L459.775,263.536L459.58,263.335L459.385,263.133L459.192,262.93L459,262.725L458.809,262.52L458.619,262.313L458.431,262.106L458.243,261.897L458.057,261.688L457.872,261.477L457.688,261.265L457.506,261.052L457.324,260.838L457.144,260.623L456.965,260.407L456.787,260.19L456.611,259.972L456.436,259.753L456.262,259.533L456.089,259.312L455.917,259.09L455.747,258.867L455.578,258.643L455.41,258.418L455.244,258.192L455.079,257.965L454.915,257.737L454.753,257.508L454.591,257.278L454.431,257.047L454.273,256.815L454.115,256.583L453.959,256.349L453.805,256.114L453.651,255.879L453.5,255.643L453.349,255.405L453.2,255.167L453.052,254.928L452.905,254.688L452.76,254.447L452.616,254.206L452.474,253.963L452.333,253.719L452.193,253.475L452.055,253.23L451.918,252.984L451.782,252.737L451.648,252.489L451.516,252.241L451.385,251.991L451.255,251.741L451.126,251.49L451,251.239L450.874,250.986L450.75,250.733L450.628,250.478L450.506,250.223L450.387,249.968L450.269,249.711L450.152,249.454L450.037,249.196L449.923,248.937L449.811,248.678L449.7,248.417L449.591,248.156L449.484,247.895L449.378,247.632L449.273,247.369L449.17,247.105L449.068,246.84L448.968,246.575L448.87,246.309L448.773,246.042L448.678,245.775L448.584,245.507L448.492,245.238L448.401,244.969L448.312,244.699L448.225,244.428L448.139,244.157L448.055,243.885L447.972,243.612L447.891,243.339L447.811,243.065L447.734,242.791L447.657,242.515L447.583,242.24L447.51,241.963L447.439,241.686L447.369,241.409L447.301,241.131L447.235,240.852L447.17,240.573L447.107,240.293L447.046,240.013L446.986,239.732L446.928,239.45L446.872,239.168L446.818,238.886L446.765,238.603L446.714,238.319L446.664,238.035L446.617,237.75L446.571,237.465L446.527,237.18L446.484,236.894L446.443,236.607L446.404,236.32L446.367,236.032L446.332,235.744L446.298,235.456L446.266,235.167L446.236,234.877L446.208,234.587L446.181,234.297L446.156,234.006L446.133,233.715L446.112,233.423L446.093,233.131L446.075,232.839L446.059,232.546L446.046,232.253L446.034,231.959L446.023,231.665L446.015,231.37L446.008,231.076L446.004,230.78L446.001,230.485L446,230.189L446,73L537.5,73L537.5,280ZM471.729,99.28L471.729,230.145L471.729,230.317L471.731,230.445L471.732,230.562L471.735,230.688L471.739,230.823L471.743,230.947L471.748,231.062L471.754,231.194L471.761,231.316L471.768,231.438L471.777,231.567L471.785,231.688L471.795,231.807L471.806,231.935L471.817,232.062L471.829,232.179L471.842,232.304L471.856,232.429L471.869,232.544L471.884,232.668L471.901,232.8L471.917,232.913L471.934,233.034L471.953,233.164L471.97,233.275L471.99,233.394L472.011,233.523L472.033,233.65L472.054,233.767L472.076,233.884L472.1,234.009L472.123,234.124L472.147,234.239L472.173,234.362L472.202,234.494L472.227,234.607L472.253,234.718L472.284,234.848L472.313,234.968L472.343,235.087L472.374,235.205L472.405,235.323L472.436,235.441L472.469,235.558L472.504,235.682L472.538,235.797L472.572,235.912L472.609,236.035L472.644,236.148L472.682,236.27L472.721,236.39L472.758,236.503L472.798,236.622L472.839,236.741L472.881,236.859L472.923,236.977L472.965,237.093L473.008,237.21L473.052,237.325L473.096,237.44L473.14,237.555L473.189,237.677L473.235,237.79L473.281,237.902L473.331,238.023L473.379,238.134L473.429,238.252L473.481,238.37L473.53,238.48L473.584,238.597L473.637,238.712L473.691,238.828L473.745,238.943L473.796,239.049L473.852,239.162L473.912,239.282L473.968,239.395L474.025,239.506L474.082,239.617L474.144,239.734L474.203,239.844L474.262,239.954L474.325,240.069L474.385,240.175L474.449,240.29L474.514,240.404L474.579,240.516L474.645,240.628L474.707,240.733L474.774,240.844L474.841,240.953L474.909,241.063L474.977,241.171L475.046,241.28L475.119,241.393L475.184,241.493L475.258,241.606L475.332,241.717L475.4,241.817L475.475,241.927L475.55,242.035L475.622,242.138L475.7,242.247L475.776,242.354L475.85,242.454L475.928,242.56L476.01,242.671L476.084,242.769L476.164,242.874L476.248,242.983L476.323,243.079L476.404,243.181L476.489,243.288L476.57,243.387L476.651,243.487L476.738,243.592L476.82,243.689L476.903,243.787L476.991,243.889L477.078,243.99L477.167,244.091L477.251,244.186L477.339,244.284L477.429,244.382L477.518,244.479L477.608,244.576L477.698,244.672L477.789,244.768L477.879,244.862L477.97,244.955L478.062,245.048L478.159,245.146L478.255,245.241L478.347,245.331L478.441,245.423L478.537,245.515L478.63,245.603L478.729,245.696L478.827,245.787L478.922,245.874L479.02,245.963L479.123,246.055L479.224,246.144L479.318,246.227L479.418,246.314L479.519,246.4L479.623,246.488L479.724,246.572L479.825,246.656L479.93,246.741L480.032,246.824L480.134,246.905L480.239,246.988L480.347,247.072L480.449,247.15L480.554,247.23L480.661,247.311L480.766,247.389L480.873,247.468L480.984,247.548L481.088,247.622L481.196,247.699L481.31,247.778L481.418,247.853L481.525,247.926L481.633,247.999L481.743,248.072L481.857,248.147L481.971,248.221L482.079,248.29L482.188,248.359L482.303,248.431L482.417,248.501L482.526,248.567L482.641,248.636L482.757,248.704L482.869,248.77L482.984,248.837L483.1,248.902L483.218,248.969L483.333,249.032L483.445,249.093L483.561,249.156L483.679,249.218L483.798,249.281L483.914,249.34L484.031,249.4L484.149,249.459L484.269,249.518L484.387,249.575L484.505,249.632L484.624,249.688L484.743,249.743L484.866,249.799L484.987,249.854L485.105,249.906L485.225,249.958L485.346,250.01L485.467,250.061L485.589,250.112L485.711,250.162L485.832,250.21L485.958,250.259L486.079,250.307L486.202,250.353L486.326,250.399L486.448,250.444L486.573,250.489L486.697,250.533L486.821,250.575L486.946,250.618L487.069,250.659L487.195,250.7L487.322,250.74L487.447,250.779L487.571,250.817L487.698,250.855L487.827,250.892L487.95,250.928L488.079,250.964L488.208,250.999L488.333,251.032L488.459,251.065L488.588,251.097L488.718,251.129L488.846,251.16L488.974,251.19L489.101,251.218L489.231,251.247L489.362,251.275L489.491,251.301L489.62,251.327L489.752,251.353L489.883,251.378L490.012,251.401L490.143,251.424L490.274,251.446L490.404,251.467L490.538,251.488L490.669,251.507L490.801,251.526L490.935,251.545L491.067,251.562L491.201,251.578L491.333,251.594L491.465,251.609L491.599,251.623L491.735,251.636L491.868,251.648L492.004,251.66L492.139,251.671L492.272,251.68L492.409,251.689L492.545,251.698L492.68,251.705L492.857,251.713L511.771,252.553L511.771,99.28L471.729,99.28Z" style="fill:rgb(185,63,123);"/>
                </g>
                <g id="Rectangle-6-Copy-2">
                    <path d="M566,44L663.5,44L663.5,195.438L608.357,226.862C584.964,240.193 566,229.165 566,202.255L566,44Z" style="fill:rgb(255,105,180);"/>
                    <path d="M663.5,195.438L608.357,226.862L608.083,227.017L607.81,227.17L607.537,227.321L607.264,227.469L606.992,227.616L606.72,227.76L606.449,227.901L606.178,228.041L605.907,228.178L605.637,228.313L605.367,228.446L605.098,228.577L604.83,228.706L604.561,228.832L604.294,228.956L604.026,229.078L603.76,229.198L603.493,229.316L603.228,229.431L602.962,229.545L602.698,229.656L602.434,229.765L602.17,229.872L601.907,229.976L601.644,230.079L601.382,230.179L601.12,230.277L600.859,230.373L600.599,230.467L600.339,230.559L600.08,230.649L599.821,230.736L599.563,230.821L599.305,230.905L599.048,230.986L598.791,231.065L598.536,231.142L598.28,231.216L598.026,231.289L597.772,231.359L597.518,231.428L597.265,231.494L597.013,231.558L596.761,231.62L596.51,231.68L596.26,231.738L596.011,231.794L595.762,231.848L595.513,231.899L595.265,231.949L595.018,231.996L594.772,232.042L594.526,232.085L594.281,232.126L594.037,232.165L593.793,232.203L593.55,232.238L593.308,232.271L593.067,232.302L592.826,232.33L592.586,232.357L592.346,232.382L592.108,232.405L591.87,232.426L591.633,232.444L591.396,232.461L591.161,232.476L590.926,232.488L590.692,232.499L590.458,232.507L590.225,232.514L589.994,232.518L589.763,232.521L589.532,232.521L589.303,232.52L589.074,232.516L588.846,232.511L588.619,232.503L588.393,232.494L588.167,232.482L587.943,232.469L587.719,232.453L587.496,232.436L587.274,232.417L587.052,232.395L586.832,232.372L586.612,232.346L586.393,232.319L586.176,232.29L585.959,232.259L585.742,232.225L585.527,232.19L585.313,232.153L585.099,232.114L584.887,232.073L584.675,232.03L584.464,231.985L584.254,231.939L584.045,231.89L583.837,231.839L583.63,231.787L583.424,231.732L583.219,231.676L583.014,231.617L582.811,231.557L582.608,231.495L582.407,231.431L582.206,231.365L582.007,231.297L581.808,231.227L581.611,231.155L581.414,231.082L581.218,231.006L581.024,230.929L580.83,230.85L580.638,230.768L580.446,230.685L580.255,230.601L580.066,230.514L579.877,230.425L579.69,230.335L579.503,230.242L579.318,230.148L579.133,230.052L578.95,229.954L578.768,229.854L578.586,229.753L578.406,229.649L578.227,229.544L578.049,229.437L577.872,229.328L577.696,229.217L577.521,229.104L577.348,228.99L577.175,228.873L577.004,228.755L576.833,228.635L576.664,228.514L576.496,228.39L576.329,228.265L576.163,228.137L575.998,228.008L575.835,227.878L575.672,227.745L575.511,227.611L575.351,227.474L575.192,227.337L575.034,227.197L574.878,227.055L574.722,226.912L574.568,226.767L574.415,226.62L574.263,226.471L574.112,226.321L573.963,226.169L573.815,226.015L573.668,225.859L573.522,225.702L573.377,225.543L573.234,225.382L573.092,225.219L572.951,225.055L572.811,224.889L572.673,224.721L572.536,224.551L572.4,224.38L572.266,224.207L572.132,224.032L572,223.855L571.869,223.677L571.74,223.497L571.612,223.315L571.485,223.132L571.359,222.947L571.235,222.76L571.112,222.572L570.991,222.382L570.87,222.19L570.751,221.996L570.634,221.801L570.518,221.604L570.403,221.405L570.289,221.205L570.177,221.003L570.066,220.799L569.957,220.594L569.848,220.387L569.742,220.179L569.636,219.968L569.532,219.756L569.43,219.543L569.329,219.327L569.229,219.111L569.131,218.892L569.034,218.672L568.938,218.45L568.844,218.226L568.751,218.001L568.66,217.775L568.57,217.546L568.482,217.316L568.395,217.085L568.31,216.851L568.226,216.617L568.143,216.38L568.062,216.142L567.982,215.902L567.904,215.661L567.828,215.418L567.753,215.174L567.679,214.928L567.607,214.68L567.536,214.431L567.467,214.18L567.4,213.928L567.334,213.674L567.269,213.418L567.206,213.161L567.145,212.902L567.085,212.642L567.026,212.38L566.969,212.117L566.914,211.852L566.861,211.585L566.808,211.317L566.758,211.048L566.709,210.777L566.662,210.504L566.616,210.23L566.572,209.954L566.529,209.677L566.488,209.398L566.449,209.118L566.411,208.836L566.375,208.552L566.34,208.267L566.307,207.981L566.276,207.693L566.247,207.404L566.219,207.113L566.192,206.82L566.168,206.526L566.145,206.231L566.124,205.934L566.104,205.635L566.086,205.335L566.07,205.034L566.055,204.731L566.042,204.427L566.031,204.121L566.022,203.814L566.014,203.505L566.008,203.195L566.003,202.883L566.001,202.57L566,202.255L566,44L663.5,44L663.5,195.438ZM591.729,70.28L591.729,202.218L591.729,202.422L591.731,202.585L591.733,202.746L591.736,202.905L591.74,203.072L591.745,203.225L591.75,203.362L591.757,203.521L591.764,203.665L591.771,203.806L591.78,203.957L591.789,204.092L591.8,204.237L591.81,204.366L591.82,204.493L591.832,204.629L591.845,204.762L591.857,204.88L591.87,204.995L591.886,205.133L591.899,205.241L591.912,205.347L591.93,205.476L591.945,205.59L591.96,205.687L591.963,205.71L592.016,205.692L592.118,205.656L592.217,205.62L592.324,205.581L592.43,205.541L592.538,205.5L592.647,205.457L592.762,205.411L592.877,205.365L592.99,205.318L593.109,205.268L593.226,205.218L593.345,205.166L593.471,205.111L593.599,205.053L593.723,204.997L593.85,204.938L593.985,204.874L594.114,204.812L594.245,204.749L594.381,204.682L594.517,204.614L594.659,204.541L594.799,204.47L594.935,204.398L595.084,204.32L595.229,204.241L595.371,204.164L595.523,204.08L595.67,203.998L595.848,203.897L637.771,180.007L637.771,70.28L591.729,70.28Z" style="fill:rgb(185,63,123);"/>
                </g>
                <g id="Rectangle-6-Copy---Oval-1" serif:id="Rectangle-6-Copy-+-Oval-1" transform="matrix(1,0,0,1,446,14)">
                    <g id="Rectangle-1" transform="matrix(1,0,0,1,-446,-14)">
                        <path d="M314,49.072C313.671,51 313.5,52.981 313.5,55.002L313.5,114L314,114L314,279.944L362.5,279.944C389.292,279.944 411,258.231 411,231.446L411,114L537.5,114L537.5,67C537.5,41.037 516.461,20 490.508,20L401.041,20C392.178,8.417 378.212,0.944 362.5,0.944L329.99,0.944C321.172,0.944 314,8.109 314,16.947L314,49.072Z" style="fill:rgb(255,105,180);"/>
                        <path d="M362.684,0.945L362.868,0.946L363.052,0.947L363.235,0.95L363.419,0.953L363.602,0.957L363.785,0.961L363.968,0.966L364.15,0.972L364.333,0.978L364.515,0.985L364.698,0.993L364.88,1.002L365.061,1.011L365.243,1.021L365.425,1.031L365.606,1.042L365.787,1.054L365.968,1.066L366.149,1.079L366.329,1.093L366.51,1.108L366.69,1.123L366.87,1.139L367.05,1.155L367.23,1.172L367.409,1.19L367.588,1.208L367.767,1.227L367.946,1.247L368.125,1.267L368.304,1.288L368.482,1.31L368.66,1.332L368.838,1.355L369.015,1.378L369.193,1.402L369.37,1.427L369.547,1.453L369.724,1.479L369.901,1.505L370.077,1.533L370.254,1.561L370.43,1.589L370.605,1.619L370.781,1.649L370.956,1.679L371.132,1.71L371.307,1.742L371.481,1.774L371.656,1.807L371.83,1.841L372.004,1.875L372.178,1.91L372.352,1.946L372.525,1.982L372.698,2.018L372.871,2.056L373.044,2.094L373.216,2.132L373.389,2.172L373.561,2.211L373.733,2.252L373.904,2.293L374.075,2.334L374.246,2.377L374.417,2.419L374.588,2.463L374.758,2.507L374.928,2.552L375.098,2.597L375.268,2.643L375.437,2.689L375.606,2.736L375.775,2.784L375.944,2.832L376.112,2.881L376.28,2.93L376.448,2.98L376.616,3.031L376.783,3.082L376.95,3.134L377.117,3.186L377.284,3.239L377.45,3.293L377.616,3.347L377.782,3.401L377.948,3.457L378.113,3.512L378.278,3.569L378.443,3.626L378.607,3.683L378.771,3.742L378.935,3.8L379.099,3.86L379.262,3.919L379.425,3.98L379.588,4.041L379.751,4.102L379.913,4.164L380.075,4.227L380.237,4.29L380.398,4.354L380.559,4.419L380.72,4.484L380.881,4.549L381.041,4.615L381.201,4.682L381.361,4.749L381.52,4.817L381.679,4.885L381.838,4.954L381.997,5.023L382.155,5.093L382.313,5.163L382.471,5.234L382.628,5.306L382.785,5.378L382.942,5.451L383.098,5.524L383.254,5.597L383.41,5.672L383.566,5.746L383.721,5.822L383.876,5.898L384.031,5.974L384.185,6.051L384.339,6.128L384.493,6.206L384.646,6.285L384.799,6.364L384.952,6.443L385.104,6.524L385.256,6.604L385.408,6.685L385.559,6.767L385.711,6.849L385.861,6.932L386.012,7.015L386.162,7.099L386.312,7.183L386.461,7.268L386.61,7.353L386.759,7.439L386.908,7.525L387.056,7.612L387.204,7.699L387.351,7.787L387.498,7.876L387.645,7.964L387.792,8.054L387.938,8.144L388.229,8.325L388.519,8.508L388.807,8.693L389.094,8.88L389.38,9.069L389.664,9.261L389.947,9.454L390.229,9.649L390.509,9.845L390.787,10.044L391.064,10.245L391.34,10.448L391.614,10.652L391.886,10.859L392.157,11.067L392.427,11.277L392.695,11.489L392.961,11.703L393.226,11.918L393.49,12.136L393.752,12.355L394.012,12.576L394.27,12.799L394.528,13.024L394.783,13.25L395.037,13.478L395.289,13.708L395.54,13.94L395.789,14.174L396.036,14.409L396.282,14.646L396.526,14.884L396.768,15.125L397.009,15.367L397.248,15.61L397.485,15.856L397.721,16.103L397.954,16.351L398.187,16.601L398.417,16.853L398.645,17.107L398.872,17.362L399.097,17.619L399.321,17.877L399.542,18.137L399.762,18.399L399.98,18.662L400.196,18.926L400.41,19.192L400.622,19.46L400.833,19.729L401.041,20L490.508,20L490.812,20.001L491.116,20.004L491.418,20.009L491.721,20.015L492.023,20.024L492.325,20.034L492.626,20.047L492.926,20.061L493.226,20.077L493.526,20.095L493.825,20.115L494.124,20.137L494.422,20.161L494.719,20.186L495.016,20.213L495.313,20.243L495.609,20.274L495.904,20.306L496.199,20.341L496.493,20.378L496.787,20.416L497.08,20.456L497.373,20.498L497.665,20.541L497.956,20.587L498.247,20.634L498.537,20.683L498.826,20.734L499.115,20.786L499.404,20.841L499.692,20.897L499.979,20.955L500.265,21.014L500.551,21.075L500.836,21.138L501.121,21.203L501.405,21.27L501.688,21.338L501.97,21.408L502.252,21.479L502.533,21.553L502.814,21.628L503.094,21.704L503.373,21.783L503.651,21.863L503.929,21.944L504.206,22.028L504.482,22.113L504.758,22.199L505.032,22.287L505.306,22.377L505.58,22.469L505.852,22.562L506.124,22.657L506.395,22.753L506.666,22.851L506.935,22.951L507.204,23.052L507.472,23.155L507.739,23.259L508.005,23.365L508.271,23.473L508.536,23.582L508.799,23.693L509.063,23.805L509.325,23.919L509.586,24.034L509.847,24.151L510.107,24.269L510.366,24.389L510.624,24.511L510.881,24.634L511.137,24.758L511.393,24.884L511.648,25.012L511.901,25.141L512.154,25.271L512.406,25.403L512.657,25.537L512.907,25.671L513.156,25.808L513.405,25.946L513.652,26.085L513.899,26.226L514.144,26.368L514.389,26.512L514.632,26.657L514.875,26.803L515.117,26.951L515.358,27.1L515.597,27.251L515.836,27.403L516.074,27.557L516.311,27.711L516.547,27.868L516.782,28.025L517.016,28.184L517.248,28.345L517.48,28.507L517.711,28.67L517.941,28.834L518.17,29L518.397,29.167L518.624,29.336L518.85,29.505L519.074,29.676L519.298,29.849L519.52,30.023L519.742,30.198L519.962,30.374L520.181,30.552L520.399,30.731L520.616,30.911L520.832,31.092L521.047,31.275L521.261,31.459L521.473,31.644L521.685,31.831L521.895,32.019L522.104,32.208L522.312,32.398L522.519,32.589L522.725,32.782L522.93,32.976L523.133,33.171L523.335,33.368L523.537,33.565L523.736,33.764L523.935,33.964L524.133,34.165L524.329,34.367L524.524,34.571L524.718,34.775L524.911,34.981L525.102,35.188L525.292,35.396L525.481,35.605L525.669,35.816L525.856,36.027L526.041,36.24L526.225,36.453L526.408,36.668L526.589,36.884L526.769,37.101L526.948,37.319L527.126,37.539L527.302,37.759L527.477,37.98L527.651,38.203L527.823,38.426L527.995,38.651L528.164,38.877L528.333,39.103L528.5,39.331L528.666,39.56L528.83,39.79L528.993,40.021L529.155,40.253L529.316,40.485L529.475,40.719L529.632,40.954L529.788,41.19L529.943,41.427L530.097,41.665L530.249,41.904L530.4,42.144L530.549,42.384L530.697,42.626L530.843,42.869L530.988,43.113L531.132,43.357L531.274,43.603L531.415,43.849L531.554,44.097L531.692,44.345L531.828,44.594L531.963,44.845L532.097,45.096L532.229,45.348L532.359,45.601L532.488,45.854L532.616,46.109L532.742,46.365L532.866,46.621L532.989,46.878L533.111,47.136L533.23,47.395L533.349,47.655L533.466,47.916L533.581,48.178L533.695,48.44L533.807,48.703L533.918,48.967L534.027,49.232L534.135,49.498L534.24,49.764L534.345,50.031L534.448,50.299L534.549,50.568L534.649,50.838L534.747,51.108L534.843,51.379L534.938,51.651L535.031,51.924L535.123,52.197L535.212,52.471L535.301,52.746L535.387,53.022L535.472,53.298L535.556,53.575L535.637,53.853L535.717,54.131L535.796,54.41L535.872,54.69L535.947,54.971L536.021,55.252L536.092,55.534L536.162,55.817L536.23,56.1L536.297,56.384L536.361,56.668L536.424,56.954L536.486,57.24L536.545,57.526L536.603,57.813L536.659,58.101L536.713,58.39L536.766,58.679L536.817,58.968L536.866,59.259L536.913,59.55L536.959,59.841L537.002,60.133L537.044,60.426L537.084,60.719L537.122,61.013L537.159,61.307L537.194,61.602L537.226,61.898L537.257,62.194L537.287,62.49L537.314,62.787L537.339,63.085L537.363,63.383L537.385,63.682L537.405,63.981L537.423,64.281L537.439,64.581L537.453,64.882L537.466,65.183L537.476,65.484L537.485,65.787L537.491,66.089L537.496,66.392L537.499,66.696L537.5,67L537.5,114L411,114L411,231.446L410.999,231.759L410.996,232.073L410.991,232.385L410.984,232.698L410.975,233.009L410.964,233.321L410.952,233.631L410.937,233.941L410.92,234.251L410.902,234.56L410.881,234.869L410.859,235.177L410.834,235.485L410.808,235.792L410.78,236.098L410.75,236.404L410.718,236.71L410.684,237.015L410.648,237.319L410.61,237.623L410.571,237.926L410.53,238.228L410.486,238.53L410.441,238.832L410.394,239.132L410.346,239.432L410.295,239.732L410.243,240.031L410.188,240.329L410.132,240.627L410.075,240.924L410.015,241.22L409.953,241.516L409.89,241.811L409.825,242.105L409.758,242.399L409.69,242.692L409.619,242.984L409.547,243.275L409.473,243.566L409.398,243.856L409.32,244.146L409.241,244.435L409.161,244.723L409.078,245.01L408.994,245.297L408.908,245.583L408.82,245.868L408.731,246.152L408.64,246.436L408.547,246.719L408.452,247.001L408.356,247.282L408.258,247.562L408.159,247.842L408.058,248.121L407.955,248.399L407.85,248.677L407.744,248.953L407.637,249.229L407.527,249.504L407.416,249.778L407.304,250.051L407.189,250.324L407.074,250.595L406.956,250.866L406.837,251.136L406.717,251.405L406.594,251.673L406.471,251.94L406.345,252.206L406.218,252.472L406.09,252.736L405.96,253L405.828,253.263L405.695,253.525L405.561,253.786L405.424,254.046L405.287,254.305L405.147,254.563L405.007,254.82L404.865,255.077L404.721,255.332L404.576,255.586L404.429,255.84L404.281,256.092L404.131,256.344L403.98,256.594L403.827,256.843L403.673,257.092L403.518,257.339L403.361,257.586L403.202,257.831L403.042,258.076L402.881,258.319L402.719,258.562L402.554,258.803L402.389,259.043L402.222,259.283L402.054,259.521L401.884,259.758L401.713,259.994L401.54,260.229L401.366,260.463L401.191,260.696L401.015,260.928L400.837,261.159L400.657,261.388L400.477,261.617L400.295,261.844L400.112,262.07L399.927,262.295L399.741,262.519L399.554,262.742L399.365,262.964L399.175,263.184L398.984,263.404L398.791,263.622L398.598,263.839L398.403,264.055L398.206,264.27L398.009,264.483L397.81,264.696L397.61,264.907L397.408,265.117L397.206,265.326L397.002,265.533L396.797,265.739L396.591,265.944L396.383,266.148L396.174,266.351L395.964,266.552L395.753,266.752L395.541,266.951L395.327,267.149L395.113,267.345L394.897,267.54L394.68,267.734L394.461,267.927L394.242,268.118L394.021,268.308L393.8,268.496L393.577,268.684L393.353,268.87L393.128,269.054L392.902,269.238L392.674,269.42L392.446,269.6L392.216,269.78L391.985,269.957L391.754,270.134L391.521,270.309L391.287,270.483L391.052,270.656L390.816,270.827L390.579,270.997L390.34,271.165L390.101,271.332L389.861,271.497L389.619,271.661L389.377,271.824L389.134,271.985L388.889,272.145L388.644,272.304L388.397,272.461L388.15,272.616L387.901,272.77L387.652,272.923L387.401,273.074L387.15,273.224L386.897,273.372L386.644,273.519L386.389,273.664L386.134,273.808L385.878,273.95L385.621,274.091L385.362,274.23L385.103,274.368L384.843,274.504L384.582,274.639L384.32,274.772L384.058,274.903L383.794,275.033L383.529,275.162L383.264,275.289L382.997,275.414L382.73,275.538L382.462,275.66L382.193,275.781L381.923,275.9L381.652,276.017L381.381,276.133L381.108,276.247L380.835,276.36L380.561,276.471L380.286,276.58L380.01,276.688L379.734,276.794L379.456,276.899L379.178,277.001L378.899,277.103L378.62,277.202L378.339,277.3L378.058,277.396L377.776,277.491L377.493,277.583L377.209,277.674L376.925,277.764L376.639,277.852L376.354,277.938L376.067,278.022L375.78,278.104L375.491,278.185L375.203,278.264L374.913,278.342L374.623,278.417L374.332,278.491L374.04,278.563L373.748,278.634L373.455,278.702L373.161,278.769L372.867,278.834L372.572,278.897L372.276,278.959L371.98,279.019L371.683,279.076L371.385,279.133L371.087,279.187L370.788,279.239L370.488,279.29L370.188,279.339L369.887,279.385L369.586,279.431L369.284,279.474L368.981,279.515L368.678,279.555L368.375,279.592L368.07,279.628L367.765,279.662L367.46,279.694L367.154,279.724L366.847,279.752L366.54,279.778L366.232,279.803L365.924,279.825L365.615,279.846L365.306,279.864L364.996,279.881L364.686,279.896L364.375,279.909L364.064,279.92L363.752,279.928L363.44,279.935L363.127,279.94L362.814,279.943L362.5,279.944L314,279.944L314,114L313.5,114L313.5,55.002L313.501,54.813L313.502,54.624L313.505,54.435L313.508,54.246L313.512,54.058L313.518,53.869L313.524,53.682L313.532,53.494L313.54,53.306L313.55,53.119L313.56,52.932L313.572,52.746L313.584,52.559L313.597,52.373L313.611,52.187L313.627,52.002L313.643,51.817L313.66,51.632L313.678,51.447L313.697,51.262L313.717,51.078L313.738,50.894L313.76,50.711L313.783,50.528L313.807,50.345L313.832,50.162L313.857,49.979L313.884,49.797L313.912,49.616L313.94,49.434L313.97,49.253L314,49.072L314,16.947L314,16.843L314.001,16.74L314.003,16.637L314.005,16.534L314.008,16.431L314.012,16.328L314.016,16.225L314.021,16.123L314.026,16.021L314.033,15.919L314.039,15.817L314.047,15.715L314.055,15.614L314.063,15.513L314.073,15.411L314.083,15.31L314.093,15.21L314.104,15.109L314.116,15.009L314.129,14.908L314.142,14.808L314.155,14.709L314.17,14.609L314.185,14.51L314.2,14.41L314.216,14.311L314.233,14.213L314.25,14.114L314.268,14.015L314.287,13.917L314.306,13.819L314.325,13.722L314.346,13.624L314.367,13.527L314.388,13.43L314.41,13.333L314.433,13.236L314.456,13.14L314.48,13.043L314.504,12.947L314.529,12.852L314.555,12.756L314.581,12.661L314.608,12.566L314.635,12.471L314.663,12.376L314.691,12.282L314.72,12.188L314.75,12.094L314.78,12.001L314.81,11.907L314.841,11.814L314.873,11.721L314.905,11.629L314.938,11.536L314.972,11.444L315.006,11.353L315.04,11.261L315.075,11.17L315.111,11.079L315.147,10.988L315.184,10.898L315.258,10.718L315.335,10.539L315.415,10.361L315.496,10.184L315.579,10.009L315.664,9.835L315.752,9.661L315.841,9.49L315.933,9.319L316.026,9.149L316.121,8.981L316.219,8.814L316.318,8.649L316.419,8.484L316.522,8.321L316.627,8.16L316.734,8L316.843,7.841L316.954,7.683L317.066,7.527L317.181,7.372L317.297,7.219L317.415,7.067L317.534,6.917L317.656,6.768L317.779,6.62L317.904,6.474L318.03,6.33L318.159,6.187L318.288,6.046L318.42,5.906L318.553,5.768L318.688,5.631L318.825,5.496L318.963,5.363L319.103,5.231L319.244,5.101L319.387,4.973L319.531,4.846L319.677,4.722L319.824,4.598L319.973,4.477L320.124,4.357L320.275,4.239L320.429,4.123L320.583,4.009L320.739,3.897L320.897,3.786L321.056,3.677L321.216,3.57L321.377,3.465L321.54,3.362L321.705,3.261L321.87,3.162L322.037,3.064L322.205,2.969L322.374,2.876L322.545,2.784L322.716,2.695L322.889,2.608L323.064,2.522L323.239,2.439L323.415,2.358L323.593,2.279L323.772,2.202L323.951,2.127L324.132,2.054L324.314,1.984L324.498,1.915L324.682,1.849L324.867,1.785L325.053,1.723L325.24,1.664L325.334,1.635L325.428,1.606L325.523,1.579L325.617,1.551L325.712,1.525L325.807,1.499L325.903,1.473L325.998,1.448L326.094,1.424L326.19,1.4L326.287,1.377L326.383,1.354L326.48,1.332L326.577,1.311L326.674,1.29L326.771,1.269L326.869,1.25L326.967,1.231L327.065,1.212L327.163,1.194L327.262,1.177L327.36,1.16L327.459,1.144L327.558,1.129L327.657,1.114L327.757,1.099L327.857,1.086L327.956,1.073L328.056,1.06L328.157,1.049L328.257,1.037L328.358,1.027L328.458,1.017L328.559,1.008L328.66,0.999L328.762,0.991L328.863,0.983L328.965,0.977L329.067,0.971L329.169,0.965L329.271,0.96L329.373,0.956L329.476,0.952L329.578,0.949L329.681,0.947L329.784,0.946L329.887,0.945L329.99,0.944L362.5,0.944L362.684,0.945ZM339.729,27.224L339.729,51.308L339.341,53.619L339.333,53.668L339.327,53.705L339.322,53.741L339.312,53.806L339.307,53.843L339.304,53.867L339.297,53.92L339.29,53.973L339.285,54.013L339.281,54.052L339.276,54.093L339.272,54.134L339.268,54.176L339.263,54.231L339.259,54.274L339.256,54.318L339.252,54.361L339.249,54.405L339.246,54.45L339.244,54.481L339.241,54.541L339.239,54.587L339.237,54.634L339.235,54.682L339.233,54.716L339.232,54.765L339.231,54.814L339.23,54.863L339.229,54.914L339.229,54.951L339.229,55.03L339.229,87.72L339.729,87.72L339.729,253.664L362.46,253.664L362.654,253.664L362.807,253.662L362.961,253.66L363.115,253.656L363.265,253.652L363.418,253.647L363.571,253.64L363.721,253.633L363.871,253.625L364.023,253.616L364.172,253.606L364.32,253.595L364.471,253.583L364.619,253.571L364.767,253.557L364.915,253.543L365.062,253.527L365.21,253.511L365.354,253.494L365.501,253.476L365.648,253.456L365.792,253.437L365.938,253.416L366.082,253.394L366.223,253.372L366.371,253.348L366.513,253.324L366.654,253.3L366.799,253.273L366.941,253.247L367.083,253.219L367.223,253.191L367.362,253.162L367.504,253.131L367.645,253.1L367.786,253.068L367.924,253.036L368.061,253.003L368.2,252.968L368.339,252.933L368.478,252.897L368.615,252.86L368.75,252.823L368.887,252.785L369.025,252.745L369.16,252.705L369.295,252.665L369.431,252.623L369.565,252.581L369.7,252.538L369.834,252.494L369.966,252.45L370.1,252.404L370.234,252.357L370.366,252.31L370.498,252.262L370.627,252.214L370.759,252.165L370.89,252.114L371.019,252.064L371.152,252.011L371.28,251.959L371.41,251.906L371.539,251.852L371.666,251.798L371.793,251.742L371.921,251.686L372.048,251.629L372.176,251.57L372.3,251.513L372.426,251.454L372.555,251.392L372.677,251.333L372.803,251.271L372.927,251.209L373.049,251.147L373.175,251.082L373.295,251.019L373.416,250.955L373.54,250.888L373.66,250.822L373.781,250.755L373.905,250.685L374.025,250.617L374.14,250.55L374.258,250.48L374.38,250.408L374.499,250.336L374.615,250.265L374.734,250.192L374.851,250.118L374.963,250.046L375.082,249.97L375.2,249.893L375.312,249.818L375.424,249.743L375.538,249.666L375.655,249.585L375.765,249.509L375.877,249.43L375.993,249.346L376.1,249.269L376.21,249.188L376.321,249.105L376.432,249.022L376.541,248.939L376.648,248.857L376.757,248.771L376.865,248.686L376.97,248.602L377.075,248.517L377.184,248.427L377.288,248.341L377.391,248.254L377.498,248.163L377.601,248.074L377.704,247.985L377.805,247.896L377.907,247.804L378.01,247.712L378.111,247.619L378.212,247.526L378.307,247.437L378.408,247.342L378.509,247.244L378.603,247.153L378.698,247.06L378.798,246.96L378.896,246.862L378.985,246.772L379.079,246.674L379.177,246.572L379.273,246.47L379.362,246.376L379.454,246.276L379.55,246.171L379.636,246.076L379.723,245.978L379.814,245.875L379.909,245.767L379.994,245.668L380.079,245.568L380.169,245.461L380.257,245.355L380.34,245.253L380.424,245.15L380.507,245.046L380.59,244.941L380.676,244.83L380.758,244.724L380.84,244.617L380.921,244.51L380.998,244.406L381.077,244.298L381.161,244.182L381.237,244.076L381.311,243.971L381.39,243.858L381.468,243.745L381.541,243.637L381.614,243.529L381.69,243.413L381.767,243.297L381.837,243.187L381.906,243.08L381.976,242.968L382.049,242.849L382.12,242.735L382.185,242.626L382.254,242.511L382.322,242.395L382.39,242.277L382.457,242.16L382.52,242.048L382.586,241.929L382.652,241.808L382.714,241.694L382.775,241.579L382.835,241.464L382.895,241.348L382.958,241.223L383.017,241.105L383.076,240.987L383.134,240.868L383.187,240.755L383.248,240.627L383.304,240.505L383.357,240.39L383.412,240.267L383.467,240.143L383.518,240.025L383.568,239.908L383.621,239.781L383.673,239.654L383.722,239.534L383.77,239.413L383.818,239.291L383.865,239.168L383.914,239.038L383.96,238.914L384.002,238.796L384.047,238.67L384.094,238.536L384.135,238.417L384.175,238.297L384.22,238.16L384.259,238.039L384.297,237.916L384.338,237.785L384.377,237.653L384.414,237.528L384.45,237.402L384.486,237.276L384.52,237.148L384.557,237.013L384.588,236.892L384.621,236.763L384.655,236.624L384.685,236.501L384.716,236.369L384.746,236.237L384.774,236.111L384.803,235.976L384.831,235.841L384.856,235.714L384.883,235.577L384.907,235.447L384.931,235.317L384.955,235.178L384.978,235.045L384.999,234.912L385.019,234.787L385.04,234.644L385.06,234.509L385.077,234.381L385.096,234.235L385.112,234.106L385.128,233.967L385.144,233.827L385.158,233.695L385.172,233.553L385.184,233.419L385.196,233.284L385.207,233.14L385.217,233.003L385.226,232.866L385.235,232.719L385.242,232.587L385.249,232.447L385.255,232.297L385.26,232.155L385.264,232.02L385.267,231.876L385.269,231.731L385.271,231.593L385.271,231.404L385.271,87.72L511.771,87.72L511.771,67.043L511.771,66.868L511.769,66.737L511.767,66.598L511.764,66.46L511.761,66.332L511.756,66.204L511.751,66.077L511.744,65.943L511.737,65.801L511.729,65.677L511.721,65.555L511.711,65.415L511.701,65.285L511.691,65.165L511.679,65.037L511.665,64.902L511.652,64.775L511.638,64.65L511.623,64.517L511.607,64.393L511.591,64.271L511.573,64.14L511.556,64.019L511.538,63.899L511.518,63.771L511.498,63.643L511.476,63.517L511.454,63.392L511.432,63.267L511.408,63.143L511.386,63.029L511.361,62.906L511.334,62.776L511.308,62.656L511.282,62.536L511.255,62.417L511.225,62.29L511.195,62.164L511.166,62.048L511.137,61.932L511.107,61.816L511.074,61.694L511.038,61.564L511.007,61.451L510.974,61.338L510.937,61.21L510.901,61.092L510.865,60.974L510.828,60.857L510.793,60.748L510.752,60.625L510.711,60.501L510.675,60.395L510.632,60.273L510.589,60.152L510.552,60.048L510.507,59.928L510.46,59.802L510.418,59.693L510.375,59.584L510.329,59.467L510.282,59.352L510.235,59.237L510.187,59.122L510.139,59.009L510.09,58.897L510.041,58.785L509.991,58.674L509.94,58.564L509.886,58.446L509.831,58.33L509.779,58.221L509.727,58.114L509.675,58.008L509.618,57.894L509.561,57.782L509.503,57.67L509.445,57.559L509.39,57.455L509.33,57.345L509.268,57.23L509.211,57.129L509.151,57.021L509.086,56.908L509.024,56.801L508.963,56.696L508.901,56.592L508.834,56.481L508.77,56.377L508.707,56.274L508.639,56.167L508.571,56.06L508.502,55.953L508.436,55.852L508.367,55.748L508.297,55.643L508.226,55.539L508.156,55.437L508.088,55.341L508.011,55.232L507.94,55.131L507.867,55.032L507.789,54.925L507.717,54.828L507.644,54.73L507.565,54.627L507.489,54.529L507.415,54.434L507.332,54.329L507.252,54.228L507.175,54.134L507.099,54.041L507.018,53.944L506.933,53.842L506.85,53.746L506.773,53.655L506.691,53.562L506.602,53.461L506.52,53.368L506.437,53.277L506.348,53.179L506.263,53.088L506.18,52.999L506.09,52.904L506.001,52.811L505.916,52.724L505.825,52.631L505.735,52.54L505.648,52.453L505.556,52.364L505.466,52.277L505.374,52.188L505.277,52.096L505.185,52.01L505.096,51.928L504.999,51.839L504.906,51.755L504.813,51.672L504.714,51.585L504.621,51.503L504.521,51.417L504.422,51.333L504.328,51.254L504.232,51.174L504.133,51.093L504.028,51.008L503.928,50.928L503.831,50.851L503.729,50.772L503.63,50.695L503.528,50.618L503.422,50.538L503.321,50.463L503.218,50.387L503.115,50.313L503.014,50.24L502.906,50.164L502.799,50.089L502.692,50.015L502.588,49.945L502.48,49.872L502.372,49.801L502.268,49.733L502.159,49.662L502.05,49.593L501.94,49.524L501.829,49.455L501.719,49.388L501.613,49.324L501.499,49.256L501.389,49.191L501.279,49.127L501.164,49.062L501.051,48.998L500.939,48.936L500.828,48.875L500.712,48.813L500.598,48.752L500.484,48.692L500.365,48.631L500.251,48.573L500.14,48.517L500.021,48.459L499.905,48.402L499.786,48.346L499.669,48.291L499.551,48.236L499.432,48.181L499.316,48.129L499.195,48.076L499.077,48.025L498.957,47.974L498.834,47.922L498.715,47.873L498.595,47.825L498.472,47.776L498.351,47.728L498.231,47.682L498.105,47.635L497.983,47.59L497.861,47.546L497.736,47.501L497.612,47.458L497.487,47.415L497.364,47.374L497.241,47.333L497.114,47.293L496.986,47.253L496.862,47.214L496.735,47.176L496.608,47.139L496.479,47.102L496.353,47.066L496.227,47.032L496.096,46.997L495.967,46.963L495.837,46.93L495.709,46.899L495.582,46.868L495.45,46.837L495.317,46.807L495.188,46.778L495.058,46.75L494.925,46.723L494.792,46.696L494.659,46.67L494.528,46.645L494.395,46.621L494.261,46.598L494.127,46.575L493.995,46.554L493.858,46.532L493.722,46.512L493.588,46.493L493.453,46.474L493.317,46.457L493.178,46.439L493.041,46.423L492.905,46.408L492.768,46.394L492.63,46.38L492.49,46.367L492.353,46.356L492.213,46.345L492.073,46.334L491.935,46.325L491.791,46.317L491.651,46.309L491.51,46.302L491.366,46.296L491.226,46.291L491.084,46.287L490.941,46.284L490.798,46.282L490.651,46.281L490.467,46.28L388.553,46.28L380.676,36.062L380.576,35.933L380.477,35.809L380.378,35.686L380.279,35.565L380.179,35.444L380.075,35.32L379.974,35.202L379.868,35.08L379.763,34.959L379.657,34.841L379.551,34.722L379.443,34.605L379.335,34.488L379.227,34.373L379.119,34.26L379.009,34.146L378.896,34.031L378.782,33.916L378.671,33.806L378.557,33.694L378.441,33.583L378.324,33.472L378.204,33.36L378.089,33.253L377.971,33.145L377.854,33.04L377.736,32.936L377.613,32.828L377.491,32.723L377.368,32.619L377.244,32.515L377.12,32.412L376.996,32.312L376.872,32.212L376.746,32.112L376.621,32.015L376.493,31.916L376.362,31.817L376.234,31.722L376.105,31.627L375.974,31.532L375.843,31.438L375.712,31.346L375.579,31.254L375.443,31.161L375.31,31.072L375.177,30.984L375.041,30.895L374.903,30.807L374.765,30.72L374.615,30.626L374.565,30.595L374.486,30.547L374.422,30.508L374.357,30.469L374.281,30.424L374.216,30.386L374.151,30.348L374.077,30.304L374.005,30.263L373.93,30.22L373.858,30.179L373.792,30.142L373.723,30.104L373.65,30.063L373.577,30.023L373.51,29.987L373.439,29.949L373.363,29.908L373.295,29.872L373.224,29.835L373.147,29.794L373.075,29.758L373.004,29.721L372.932,29.684L372.857,29.647L372.785,29.611L372.718,29.578L372.645,29.542L372.563,29.502L372.493,29.468L372.419,29.433L372.346,29.399L372.277,29.367L372.195,29.328L372.121,29.294L372.052,29.263L371.977,29.229L371.905,29.197L371.827,29.163L371.746,29.127L371.674,29.096L371.6,29.064L371.524,29.032L371.454,29.003L371.377,28.971L371.3,28.939L371.223,28.908L371.141,28.875L371.07,28.846L370.997,28.817L370.915,28.785L370.843,28.757L370.769,28.729L370.686,28.697L370.608,28.669L370.533,28.64L370.458,28.613L370.381,28.585L370.303,28.557L370.222,28.529L370.142,28.5L370.069,28.475L369.994,28.45L369.915,28.423L369.833,28.396L369.754,28.37L369.675,28.344L369.597,28.319L369.516,28.293L369.44,28.269L369.364,28.246L369.28,28.22L369.203,28.197L369.122,28.173L369.041,28.149L368.964,28.126L368.882,28.103L368.804,28.081L368.725,28.059L368.642,28.036L368.56,28.014L368.481,27.993L368.404,27.973L368.321,27.951L368.237,27.93L368.157,27.91L368.076,27.89L367.995,27.87L367.914,27.851L367.833,27.832L367.751,27.813L367.669,27.794L367.583,27.775L367.501,27.757L367.422,27.74L367.342,27.723L367.256,27.705L367.172,27.688L367.092,27.672L367.008,27.655L366.924,27.639L366.842,27.624L366.757,27.608L366.673,27.593L366.593,27.578L366.508,27.564L366.422,27.549L366.34,27.535L366.257,27.522L366.171,27.508L366.084,27.495L366.003,27.482L365.916,27.47L365.83,27.457L365.747,27.446L365.661,27.434L365.578,27.423L365.493,27.412L365.404,27.401L365.318,27.39L365.234,27.381L365.147,27.371L365.063,27.361L364.976,27.352L364.89,27.343L364.801,27.335L364.714,27.326L364.629,27.319L364.541,27.311L364.457,27.304L364.367,27.297L364.276,27.29L364.195,27.284L364.105,27.278L364.014,27.272L363.93,27.267L363.844,27.262L363.752,27.257L363.663,27.252L363.576,27.248L363.487,27.244L363.398,27.241L363.308,27.238L363.219,27.235L363.128,27.232L363.042,27.23L362.951,27.228L362.86,27.227L362.769,27.226L362.681,27.225L362.592,27.224L362.476,27.224L339.729,27.224Z" style="fill:rgb(106,35,70);"/>
                    </g>
                    <g id="Rectangle-6-Copy">
                        <path d="M188.266,259.786C205.477,252.259 217.5,235.08 217.5,215.092L217.5,131.541C217.5,112.21 201.833,96.546 182.507,96.546L154.993,96.546C135.665,96.546 120,112.214 120,131.541L120,168.985L0,168.985L0,217.493C0,244.288 21.714,266 48.5,266L164.5,266C173.134,266 181.242,263.743 188.266,259.786Z" style="fill:rgb(248,102,175);"/>
                        <path d="M182.733,96.546L182.959,96.548L183.185,96.552L183.41,96.557L183.635,96.563L183.86,96.571L184.084,96.58L184.308,96.591L184.531,96.603L184.754,96.617L184.977,96.631L185.199,96.648L185.421,96.665L185.643,96.684L185.864,96.704L186.085,96.726L186.305,96.749L186.525,96.774L186.745,96.8L186.964,96.827L187.182,96.855L187.401,96.885L187.619,96.916L187.836,96.949L188.053,96.983L188.269,97.018L188.486,97.054L188.701,97.092L188.916,97.131L189.131,97.172L189.345,97.213L189.559,97.256L189.773,97.301L189.985,97.346L190.198,97.393L190.41,97.441L190.621,97.491L190.832,97.542L191.042,97.594L191.252,97.647L191.462,97.702L191.67,97.757L191.879,97.815L192.087,97.873L192.294,97.932L192.501,97.993L192.707,98.055L192.913,98.119L193.118,98.183L193.323,98.249L193.527,98.316L193.73,98.384L193.933,98.453L194.136,98.524L194.337,98.596L194.539,98.669L194.739,98.743L194.939,98.818L195.139,98.895L195.338,98.972L195.536,99.051L195.734,99.131L195.931,99.213L196.128,99.295L196.324,99.379L196.519,99.463L196.714,99.549L196.908,99.636L197.101,99.725L197.294,99.814L197.486,99.904L197.678,99.996L197.869,100.089L198.059,100.182L198.249,100.277L198.438,100.373L198.626,100.471L198.813,100.569L199,100.668L199.187,100.769L199.372,100.87L199.557,100.973L199.741,101.076L199.925,101.181L200.108,101.287L200.29,101.394L200.471,101.502L200.652,101.611L200.832,101.721L201.011,101.832L201.19,101.945L201.368,102.058L201.545,102.172L201.721,102.287L201.897,102.404L202.072,102.521L202.246,102.64L202.419,102.759L202.592,102.88L202.764,103.001L202.935,103.123L203.105,103.247L203.275,103.371L203.444,103.497L203.612,103.623L203.779,103.751L203.946,103.879L204.111,104.008L204.276,104.139L204.44,104.27L204.603,104.402L204.766,104.536L204.927,104.67L205.088,104.805L205.248,104.941L205.407,105.078L205.566,105.216L205.723,105.355L205.88,105.495L206.035,105.635L206.19,105.777L206.344,105.92L206.498,106.063L206.65,106.208L206.802,106.353L206.952,106.499L207.102,106.646L207.251,106.794L207.399,106.943L207.546,107.093L207.692,107.243L207.837,107.395L207.982,107.547L208.125,107.7L208.268,107.854L208.409,108.009L208.55,108.165L208.69,108.322L208.829,108.479L208.967,108.638L209.104,108.797L209.24,108.957L209.375,109.118L209.509,109.279L209.643,109.442L209.775,109.605L209.906,109.769L210.036,109.934L210.166,110.099L210.294,110.266L210.422,110.433L210.548,110.601L210.674,110.77L210.798,110.94L210.921,111.11L211.044,111.281L211.165,111.453L211.286,111.626L211.405,111.799L211.524,111.973L211.641,112.148L211.757,112.324L211.873,112.5L211.987,112.677L212.1,112.855L212.213,113.034L212.324,113.213L212.434,113.393L212.543,113.574L212.651,113.755L212.758,113.937L212.864,114.12L212.969,114.304L213.072,114.488L213.175,114.673L213.277,114.859L213.377,115.045L213.476,115.232L213.575,115.419L213.672,115.608L213.768,115.797L213.863,115.986L213.957,116.177L214.049,116.368L214.141,116.559L214.231,116.751L214.321,116.944L214.409,117.138L214.496,117.332L214.582,117.526L214.666,117.722L214.75,117.918L214.832,118.114L214.914,118.311L214.994,118.509L215.073,118.708L215.151,118.907L215.227,119.106L215.302,119.306L215.377,119.507L215.45,119.708L215.521,119.91L215.592,120.113L215.661,120.316L215.73,120.519L215.797,120.723L215.862,120.928L215.927,121.133L215.99,121.339L216.052,121.545L216.113,121.752L216.173,121.959L216.231,122.167L216.288,122.376L216.344,122.585L216.398,122.794L216.452,123.004L216.504,123.214L216.554,123.425L216.604,123.637L216.652,123.849L216.699,124.061L216.745,124.274L216.789,124.487L216.832,124.701L216.874,124.915L216.914,125.13L216.953,125.345L216.991,125.561L217.028,125.777L217.063,125.994L217.097,126.211L217.129,126.428L217.161,126.646L217.19,126.865L217.219,127.083L217.246,127.303L217.272,127.522L217.296,127.742L217.319,127.963L217.341,128.183L217.361,128.405L217.38,128.626L217.398,128.848L217.414,129.071L217.429,129.293L217.442,129.517L217.454,129.74L217.465,129.964L217.474,130.188L217.482,130.413L217.489,130.638L217.494,130.863L217.497,131.089L217.499,131.315L217.5,131.541L217.5,215.092L217.499,215.326L217.498,215.56L217.495,215.794L217.491,216.027L217.486,216.26L217.48,216.493L217.473,216.725L217.465,216.958L217.456,217.19L217.445,217.421L217.434,217.653L217.421,217.884L217.408,218.115L217.393,218.345L217.378,218.575L217.361,218.805L217.343,219.035L217.324,219.264L217.304,219.493L217.283,219.722L217.261,219.951L217.238,220.179L217.214,220.407L217.189,220.634L217.162,220.861L217.135,221.088L217.107,221.315L217.077,221.541L217.047,221.767L217.016,221.993L216.983,222.218L216.95,222.443L216.915,222.667L216.88,222.891L216.843,223.115L216.806,223.339L216.767,223.562L216.728,223.785L216.687,224.008L216.645,224.23L216.603,224.452L216.559,224.673L216.515,224.894L216.469,225.115L216.423,225.335L216.375,225.555L216.327,225.775L216.277,225.994L216.227,226.213L216.175,226.431L216.123,226.65L216.069,226.867L216.015,227.085L215.959,227.302L215.903,227.518L215.846,227.734L215.787,227.95L215.728,228.166L215.668,228.381L215.607,228.595L215.545,228.809L215.481,229.023L215.417,229.237L215.353,229.45L215.287,229.662L215.22,229.874L215.152,230.086L215.083,230.297L215.014,230.508L214.943,230.719L214.871,230.929L214.799,231.138L214.726,231.347L214.651,231.556L214.576,231.764L214.5,231.972L214.423,232.18L214.345,232.387L214.266,232.593L214.186,232.799L214.106,233.005L214.024,233.21L213.941,233.415L213.858,233.619L213.774,233.823L213.689,234.026L213.603,234.229L213.516,234.431L213.428,234.633L213.339,234.834L213.249,235.035L213.159,235.236L213.068,235.436L212.975,235.635L212.882,235.834L212.788,236.033L212.693,236.231L212.598,236.428L212.501,236.625L212.404,236.822L212.305,237.018L212.206,237.213L212.106,237.408L212.006,237.603L211.904,237.797L211.801,237.99L211.698,238.183L211.594,238.376L211.489,238.568L211.383,238.759L211.276,238.95L211.169,239.14L211.06,239.33L210.951,239.519L210.841,239.708L210.73,239.896L210.619,240.084L210.506,240.271L210.393,240.458L210.279,240.644L210.164,240.829L210.048,241.014L209.932,241.198L209.814,241.382L209.696,241.566L209.577,241.748L209.458,241.93L209.337,242.112L209.216,242.293L209.094,242.473L208.971,242.653L208.847,242.832L208.723,243.011L208.598,243.189L208.472,243.367L208.345,243.544L208.218,243.72L208.089,243.896L207.96,244.071L207.831,244.245L207.7,244.419L207.569,244.593L207.437,244.765L207.304,244.937L207.171,245.109L207.036,245.28L206.901,245.45L206.765,245.62L206.629,245.789L206.492,245.957L206.354,246.125L206.215,246.292L206.076,246.459L205.935,246.625L205.795,246.79L205.653,246.955L205.511,247.119L205.368,247.282L205.224,247.445L205.079,247.607L204.934,247.768L204.788,247.929L204.642,248.089L204.494,248.249L204.346,248.408L204.198,248.566L204.048,248.723L203.898,248.88L203.747,249.036L203.596,249.192L203.444,249.347L203.291,249.501L203.137,249.654L202.983,249.807L202.828,249.959L202.673,250.11L202.517,250.261L202.36,250.411L202.202,250.561L202.044,250.709L201.885,250.857L201.726,251.004L201.565,251.151L201.405,251.297L201.243,251.442L201.081,251.586L200.918,251.73L200.755,251.873L200.591,252.015L200.426,252.157L200.261,252.298L200.095,252.438L199.928,252.577L199.761,252.716L199.593,252.854L199.425,252.991L199.255,253.127L199.086,253.263L198.915,253.398L198.744,253.532L198.573,253.666L198.401,253.798L198.228,253.93L198.055,254.062L197.881,254.192L197.706,254.322L197.531,254.451L197.355,254.579L197.179,254.706L197.002,254.833L196.824,254.959L196.646,255.084L196.467,255.208L196.288,255.332L196.108,255.455L195.928,255.577L195.747,255.698L195.565,255.818L195.383,255.938L195.2,256.057L195.017,256.175L194.833,256.292L194.649,256.408L194.464,256.524L194.278,256.639L194.092,256.753L193.905,256.866L193.718,256.979L193.531,257.09L193.342,257.201L193.154,257.311L192.964,257.42L192.774,257.528L192.584,257.636L192.393,257.742L192.202,257.848L192.01,257.953L191.817,258.057L191.624,258.161L191.431,258.263L191.237,258.365L191.042,258.465L190.847,258.565L190.651,258.664L190.455,258.763L190.259,258.86L190.062,258.956L189.864,259.052L189.666,259.147L189.468,259.241L189.269,259.334L189.069,259.426L188.869,259.517L188.668,259.607L188.467,259.697L188.266,259.786L188.101,259.878L187.936,259.97L187.77,260.061L187.604,260.152L187.438,260.242L187.271,260.331L187.104,260.42L186.937,260.508L186.769,260.595L186.6,260.682L186.432,260.768L186.262,260.853L186.093,260.938L185.923,261.022L185.753,261.106L185.582,261.189L185.411,261.271L185.24,261.353L185.068,261.434L184.896,261.514L184.724,261.594L184.551,261.673L184.378,261.751L184.205,261.829L184.031,261.906L183.856,261.982L183.682,262.058L183.507,262.133L183.332,262.207L183.156,262.281L182.98,262.354L182.804,262.426L182.627,262.498L182.45,262.569L182.273,262.639L182.095,262.709L181.917,262.778L181.739,262.846L181.56,262.913L181.381,262.98L181.201,263.047L181.022,263.112L180.842,263.177L180.661,263.241L180.48,263.305L180.299,263.367L180.118,263.429L179.936,263.491L179.754,263.551L179.572,263.611L179.389,263.671L179.207,263.729L179.023,263.787L178.84,263.844L178.656,263.901L178.472,263.957L178.287,264.012L178.102,264.066L177.917,264.119L177.732,264.172L177.546,264.225L177.36,264.276L177.174,264.327L176.987,264.377L176.8,264.426L176.613,264.475L176.426,264.522L176.238,264.569L176.05,264.616L175.861,264.661L175.673,264.706L175.484,264.75L175.295,264.794L175.105,264.837L174.915,264.879L174.725,264.92L174.535,264.96L174.344,265L174.153,265.039L173.962,265.077L173.771,265.115L173.579,265.151L173.387,265.187L173.195,265.222L173.003,265.257L172.81,265.291L172.617,265.324L172.424,265.356L172.23,265.387L172.036,265.418L171.842,265.448L171.648,265.477L171.454,265.505L171.259,265.533L171.064,265.559L170.869,265.585L170.673,265.611L170.477,265.635L170.281,265.659L170.085,265.682L169.889,265.704L169.692,265.725L169.495,265.746L169.298,265.766L169.101,265.785L168.903,265.803L168.705,265.82L168.507,265.837L168.309,265.853L168.11,265.868L167.911,265.882L167.712,265.895L167.513,265.908L167.314,265.92L167.114,265.931L166.914,265.941L166.714,265.95L166.514,265.959L166.314,265.967L166.113,265.974L165.912,265.98L165.711,265.985L165.51,265.99L165.308,265.993L165.107,265.996L164.905,265.998L164.703,266L164.5,266L48.5,266L48.186,265.999L47.873,265.996L47.56,265.991L47.248,265.984L46.936,265.975L46.625,265.964L46.314,265.952L46.004,265.937L45.694,265.92L45.385,265.902L45.076,265.881L44.768,265.859L44.46,265.834L44.153,265.808L43.847,265.78L43.541,265.75L43.235,265.718L42.93,265.684L42.626,265.648L42.322,265.61L42.019,265.571L41.717,265.53L41.415,265.486L41.114,265.441L40.813,265.394L40.513,265.346L40.213,265.295L39.914,265.243L39.616,265.188L39.318,265.132L39.021,265.074L38.725,265.015L38.43,264.953L38.135,264.89L37.84,264.825L37.547,264.758L37.254,264.69L36.961,264.619L36.67,264.547L36.379,264.473L36.089,264.398L35.799,264.32L35.51,264.241L35.222,264.16L34.935,264.078L34.648,263.993L34.362,263.907L34.077,263.82L33.793,263.73L33.509,263.639L33.226,263.546L32.944,263.452L32.663,263.356L32.382,263.258L32.103,263.158L31.824,263.057L31.546,262.954L31.268,262.85L30.992,262.744L30.716,262.636L30.441,262.527L30.167,262.416L29.894,262.303L29.621,262.189L29.35,262.073L29.079,261.956L28.809,261.837L28.54,261.716L28.272,261.594L28.005,261.47L27.738,261.345L27.473,261.218L27.208,261.089L26.945,260.959L26.682,260.828L26.42,260.694L26.159,260.56L25.899,260.424L25.64,260.286L25.382,260.147L25.125,260.006L24.868,259.864L24.613,259.72L24.359,259.575L24.105,259.428L23.853,259.28L23.601,259.13L23.351,258.979L23.101,258.826L22.853,258.672L22.605,258.517L22.359,258.36L22.113,258.201L21.869,258.041L21.625,257.88L21.383,257.717L21.142,257.553L20.901,257.388L20.662,257.221L20.424,257.052L20.187,256.883L19.95,256.711L19.715,256.539L19.481,256.365L19.249,256.19L19.017,256.013L18.786,255.835L18.557,255.656L18.328,255.475L18.101,255.293L17.874,255.11L17.649,254.925L17.425,254.739L17.202,254.552L16.981,254.363L16.76,254.173L16.541,253.982L16.323,253.79L16.105,253.596L15.89,253.401L15.675,253.204L15.461,253.007L15.249,252.808L15.038,252.608L14.828,252.406L14.619,252.204L14.411,252L14.205,251.795L14,251.588L13.796,251.381L13.594,251.172L13.392,250.962L13.192,250.751L12.993,250.539L12.796,250.325L12.599,250.11L12.404,249.894L12.21,249.677L12.018,249.459L11.827,249.24L11.637,249.019L11.448,248.797L11.261,248.574L11.075,248.35L10.89,248.125L10.707,247.899L10.525,247.671L10.344,247.443L10.165,247.213L9.987,246.983L9.81,246.751L9.635,246.518L9.461,246.284L9.289,246.049L9.118,245.813L8.948,245.576L8.78,245.337L8.613,245.098L8.447,244.858L8.283,244.616L8.12,244.374L7.959,244.13L7.799,243.886L7.641,243.64L7.484,243.394L7.328,243.146L7.174,242.898L7.021,242.648L6.87,242.398L6.721,242.146L6.572,241.894L6.426,241.64L6.28,241.386L6.137,241.13L5.994,240.874L5.854,240.617L5.714,240.359L5.577,240.099L5.44,239.839L5.306,239.578L5.173,239.316L5.041,239.054L4.911,238.79L4.783,238.525L4.656,238.26L4.53,237.993L4.407,237.726L4.284,237.458L4.164,237.189L4.045,236.919L3.927,236.648L3.811,236.376L3.697,236.104L3.584,235.831L3.473,235.556L3.364,235.282L3.256,235.006L3.15,234.729L3.046,234.452L2.943,234.173L2.842,233.894L2.742,233.615L2.644,233.334L2.548,233.053L2.454,232.771L2.361,232.488L2.27,232.204L2.18,231.919L2.093,231.634L2.007,231.348L1.922,231.062L1.84,230.774L1.759,230.486L1.68,230.197L1.603,229.908L1.527,229.617L1.453,229.326L1.381,229.035L1.311,228.742L1.242,228.449L1.175,228.156L1.11,227.861L1.047,227.566L0.985,227.27L0.926,226.974L0.868,226.677L0.812,226.379L0.758,226.081L0.705,225.782L0.655,225.482L0.606,225.182L0.559,224.881L0.514,224.58L0.471,224.278L0.429,223.975L0.39,223.672L0.352,223.368L0.316,223.064L0.282,222.759L0.25,222.453L0.22,222.147L0.192,221.841L0.166,221.533L0.141,221.226L0.119,220.917L0.098,220.609L0.08,220.299L0.063,219.989L0.048,219.679L0.036,219.368L0.025,219.057L0.016,218.745L0.009,218.433L0.004,218.12L0.001,217.806L0,217.493L0,168.985L120,168.985L120,131.541L120.001,131.315L120.003,131.089L120.006,130.863L120.011,130.638L120.018,130.413L120.026,130.189L120.035,129.964L120.046,129.74L120.058,129.517L120.071,129.294L120.086,129.071L120.102,128.849L120.12,128.627L120.139,128.405L120.159,128.184L120.181,127.963L120.204,127.743L120.228,127.523L120.254,127.303L120.281,127.084L120.31,126.865L120.339,126.647L120.371,126.429L120.403,126.212L120.437,125.995L120.472,125.778L120.509,125.562L120.546,125.346L120.586,125.131L120.626,124.917L120.668,124.702L120.711,124.488L120.755,124.275L120.801,124.062L120.848,123.85L120.896,123.638L120.945,123.427L120.996,123.216L121.048,123.005L121.102,122.795L121.156,122.586L121.212,122.377L121.269,122.169L121.327,121.961L121.387,121.753L121.448,121.547L121.51,121.34L121.573,121.135L121.638,120.929L121.703,120.725L121.77,120.521L121.838,120.317L121.908,120.114L121.978,119.912L122.05,119.71L122.123,119.509L122.197,119.308L122.273,119.108L122.349,118.908L122.427,118.709L122.506,118.511L122.586,118.313L122.667,118.116L122.75,117.919L122.833,117.723L122.918,117.528L123.004,117.333L123.091,117.139L123.179,116.946L123.268,116.753L123.359,116.561L123.45,116.369L123.543,116.178L123.637,115.988L123.732,115.798L123.828,115.609L123.925,115.421L124.023,115.234L124.123,115.047L124.223,114.86L124.325,114.675L124.427,114.49L124.531,114.305L124.636,114.122L124.742,113.939L124.849,113.757L124.957,113.575L125.066,113.395L125.176,113.215L125.287,113.035L125.399,112.857L125.512,112.679L125.627,112.502L125.742,112.325L125.858,112.15L125.976,111.975L126.094,111.801L126.214,111.627L126.334,111.455L126.456,111.283L126.578,111.112L126.701,110.941L126.826,110.772L126.951,110.603L127.078,110.435L127.205,110.268L127.334,110.101L127.463,109.935L127.593,109.771L127.725,109.606L127.857,109.443L127.99,109.281L128.124,109.119L128.259,108.958L128.396,108.798L128.533,108.639L128.67,108.481L128.809,108.323L128.949,108.167L129.09,108.011L129.232,107.856L129.374,107.702L129.518,107.549L129.662,107.396L129.807,107.245L129.953,107.094L130.101,106.944L130.249,106.796L130.397,106.648L130.547,106.5L130.698,106.354L130.849,106.209L131.002,106.065L131.155,105.921L131.309,105.778L131.464,105.637L131.62,105.496L131.776,105.356L131.934,105.217L132.092,105.079L132.251,104.942L132.411,104.806L132.572,104.671L132.733,104.537L132.896,104.404L133.059,104.271L133.223,104.14L133.388,104.01L133.554,103.88L133.72,103.752L133.887,103.624L134.055,103.498L134.224,103.373L134.394,103.248L134.564,103.125L134.735,103.002L134.907,102.881L135.08,102.76L135.253,102.641L135.427,102.522L135.602,102.405L135.778,102.288L135.954,102.173L136.131,102.059L136.309,101.946L136.488,101.833L136.667,101.722L136.847,101.612L137.028,101.503L137.209,101.395L137.391,101.288L137.574,101.182L137.758,101.077L137.942,100.974L138.127,100.871L138.312,100.769L138.499,100.669L138.686,100.57L138.873,100.471L139.062,100.374L139.251,100.278L139.44,100.183L139.63,100.089L139.821,99.997L140.013,99.905L140.205,99.814L140.398,99.725L140.591,99.637L140.785,99.55L140.98,99.464L141.175,99.379L141.371,99.296L141.568,99.213L141.765,99.132L141.963,99.052L142.161,98.973L142.36,98.895L142.56,98.819L142.76,98.743L142.961,98.669L143.162,98.596L143.364,98.524L143.566,98.454L143.769,98.384L143.973,98.316L144.177,98.249L144.381,98.183L144.587,98.119L144.792,98.056L144.999,97.994L145.205,97.933L145.413,97.873L145.621,97.815L145.829,97.758L146.038,97.702L146.247,97.647L146.457,97.594L146.667,97.542L146.878,97.491L147.09,97.442L147.302,97.393L147.514,97.347L147.727,97.301L147.94,97.257L148.154,97.213L148.368,97.172L148.583,97.131L148.798,97.092L149.014,97.054L149.23,97.018L149.447,96.983L149.664,96.949L149.881,96.916L150.099,96.885L150.317,96.855L150.536,96.827L150.755,96.8L150.975,96.774L151.195,96.749L151.415,96.726L151.636,96.705L151.857,96.684L152.079,96.665L152.301,96.648L152.523,96.631L152.746,96.617L152.969,96.603L153.192,96.591L153.416,96.58L153.64,96.571L153.865,96.563L154.09,96.557L154.315,96.552L154.541,96.548L154.767,96.546L154.993,96.546L182.507,96.546L182.733,96.546ZM155.035,122.826L154.927,122.826L154.859,122.827L154.792,122.828L154.726,122.829L154.663,122.831L154.598,122.833L154.532,122.836L154.466,122.839L154.404,122.842L154.339,122.846L154.276,122.85L154.212,122.855L154.147,122.86L154.087,122.865L154.023,122.871L153.961,122.877L153.899,122.884L153.834,122.891L153.773,122.898L153.715,122.905L153.654,122.913L153.592,122.922L153.531,122.931L153.468,122.94L153.41,122.949L153.353,122.958L153.288,122.969L153.227,122.98L153.172,122.99L153.113,123.001L153.054,123.013L152.995,123.024L152.934,123.037L152.876,123.05L152.821,123.062L152.761,123.075L152.705,123.089L152.646,123.103L152.588,123.117L152.531,123.132L152.474,123.146L152.42,123.161L152.362,123.177L152.307,123.192L152.249,123.209L152.192,123.226L152.136,123.243L152.08,123.26L152.027,123.276L151.973,123.294L151.915,123.313L151.861,123.331L151.806,123.35L151.75,123.369L151.701,123.387L151.647,123.406L151.587,123.428L151.533,123.449L151.48,123.469L151.425,123.49L151.377,123.51L151.323,123.531L151.265,123.555L151.216,123.576L151.165,123.598L151.11,123.622L151.058,123.645L151.004,123.669L150.954,123.691L150.905,123.714L150.85,123.74L150.799,123.764L150.747,123.79L150.697,123.814L150.645,123.84L150.594,123.866L150.548,123.89L150.493,123.919L150.445,123.945L150.395,123.971L150.343,124L150.299,124.024L150.246,124.054L150.195,124.083L150.15,124.109L150.1,124.139L150.05,124.168L149.999,124.199L149.948,124.23L149.905,124.257L149.862,124.284L149.809,124.318L149.76,124.35L149.716,124.378L149.67,124.409L149.624,124.439L149.574,124.474L149.529,124.504L149.485,124.535L149.435,124.571L149.389,124.603L149.349,124.632L149.304,124.665L149.254,124.703L149.209,124.736L149.163,124.772L149.123,124.802L149.08,124.836L149.034,124.872L148.993,124.905L148.943,124.946L148.904,124.977L148.865,125.011L148.819,125.049L148.774,125.087L148.729,125.126L148.696,125.155L148.656,125.19L148.61,125.231L148.564,125.272L148.525,125.308L148.486,125.345L148.447,125.381L148.407,125.419L148.367,125.457L148.328,125.495L148.288,125.534L148.249,125.573L148.209,125.613L148.171,125.652L148.131,125.693L148.097,125.728L148.058,125.77L148.018,125.813L147.985,125.848L147.953,125.883L147.912,125.928L147.873,125.972L147.835,126.015L147.801,126.054L147.767,126.094L147.735,126.132L147.702,126.171L147.661,126.22L147.629,126.26L147.596,126.3L147.558,126.348L147.524,126.39L147.497,126.425L147.464,126.467L147.431,126.512L147.398,126.555L147.366,126.598L147.339,126.635L147.305,126.681L147.273,126.727L147.242,126.771L147.209,126.818L147.181,126.858L147.155,126.897L147.128,126.937L147.097,126.984L147.064,127.034L147.037,127.076L147.011,127.116L146.979,127.167L146.952,127.211L146.926,127.254L146.9,127.297L146.874,127.34L146.848,127.385L146.822,127.43L146.796,127.475L146.776,127.511L146.75,127.557L146.719,127.615L146.693,127.663L146.673,127.7L146.653,127.739L146.628,127.787L146.602,127.837L146.577,127.888L146.557,127.927L146.537,127.969L146.513,128.02L146.493,128.063L146.473,128.105L146.449,128.158L146.429,128.203L146.41,128.247L146.386,128.302L146.371,128.336L146.352,128.382L146.328,128.439L146.31,128.485L146.295,128.522L146.276,128.571L146.258,128.619L146.239,128.667L146.221,128.718L146.207,128.756L146.189,128.807L146.171,128.859L146.157,128.899L146.143,128.941L146.126,128.993L146.108,129.047L146.095,129.091L146.081,129.134L146.065,129.189L146.051,129.235L146.038,129.28L146.022,129.337L146.01,129.383L146,129.42L145.987,129.468L145.972,129.528L145.96,129.576L145.951,129.614L145.939,129.665L145.928,129.716L145.916,129.767L145.905,129.819L145.896,129.861L145.886,129.914L145.875,129.968L145.867,130.011L145.859,130.056L145.849,130.112L145.839,130.169L145.832,130.215L145.825,130.261L145.818,130.309L145.809,130.368L145.803,130.417L145.796,130.466L145.79,130.516L145.784,130.567L145.777,130.63L145.773,130.671L145.767,130.724L145.761,130.789L145.758,130.832L145.754,130.876L145.749,130.943L145.746,131L145.743,131.034L145.74,131.093L145.737,131.163L145.735,131.211L145.733,131.261L145.732,131.311L145.731,131.373L145.73,131.436L145.729,131.488L145.729,131.587L145.729,195.265L25.729,195.265L25.729,217.451L25.729,217.64L25.731,217.778L25.733,217.923L25.736,218.068L25.74,218.203L25.745,218.345L25.751,218.495L25.758,218.636L25.765,218.767L25.773,218.906L25.783,219.052L25.794,219.197L25.804,219.325L25.815,219.46L25.829,219.611L25.842,219.744L25.856,219.877L25.872,220.017L25.888,220.156L25.905,220.294L25.922,220.423L25.941,220.56L25.96,220.695L25.98,220.829L26.001,220.963L26.023,221.096L26.045,221.229L26.069,221.368L26.093,221.499L26.118,221.628L26.144,221.765L26.17,221.893L26.198,222.029L26.227,222.163L26.255,222.288L26.283,222.414L26.316,222.554L26.347,222.685L26.378,222.808L26.411,222.937L26.444,223.065L26.481,223.202L26.515,223.329L26.549,223.448L26.587,223.582L26.626,223.714L26.663,223.838L26.701,223.962L26.742,224.092L26.784,224.222L26.824,224.343L26.864,224.463L26.907,224.59L26.954,224.724L26.999,224.851L27.041,224.967L27.087,225.092L27.134,225.216L27.181,225.338L27.232,225.468L27.28,225.588L27.329,225.709L27.381,225.837L27.431,225.955L27.484,226.08L27.538,226.205L27.587,226.314L27.642,226.438L27.701,226.567L27.754,226.682L27.811,226.803L27.868,226.923L27.923,227.035L27.985,227.161L28.044,227.28L28.104,227.397L28.167,227.519L28.228,227.635L28.288,227.749L28.35,227.863L28.416,227.985L28.483,228.104L28.545,228.216L28.612,228.333L28.68,228.45L28.745,228.56L28.814,228.676L28.883,228.791L28.953,228.905L29.023,229.018L29.093,229.13L29.168,229.248L29.24,229.359L29.312,229.47L29.384,229.579L29.458,229.688L29.535,229.802L29.613,229.914L29.692,230.028L29.766,230.133L29.841,230.238L29.921,230.348L30.001,230.457L30.082,230.566L30.163,230.674L30.245,230.781L30.33,230.892L30.413,230.998L30.491,231.097L30.574,231.201L30.662,231.309L30.75,231.416L30.834,231.517L30.92,231.619L31.009,231.724L31.098,231.828L31.185,231.927L31.275,232.03L31.365,232.131L31.453,232.227L31.545,232.329L31.642,232.433L31.733,232.53L31.826,232.629L31.92,232.726L32.013,232.822L32.111,232.923L32.206,233.018L32.3,233.111L32.399,233.208L32.495,233.302L32.595,233.397L32.695,233.493L32.793,233.584L32.892,233.676L32.993,233.768L33.095,233.86L33.197,233.952L33.3,234.042L33.402,234.131L33.506,234.22L33.608,234.308L33.712,234.394L33.82,234.484L33.927,234.572L34.032,234.658L34.137,234.741L34.246,234.828L34.356,234.913L34.461,234.994L34.571,235.078L34.681,235.161L34.792,235.244L34.904,235.325L35.01,235.403L35.126,235.485L35.238,235.565L35.349,235.642L35.465,235.722L35.573,235.795L35.692,235.875L35.808,235.952L35.92,236.026L36.039,236.102L36.152,236.174L36.27,236.248L36.389,236.322L36.502,236.391L36.621,236.463L36.74,236.534L36.864,236.607L36.983,236.676L37.097,236.741L37.218,236.809L37.342,236.878L37.466,236.945L37.583,237.008L37.708,237.075L37.831,237.14L37.954,237.203L38.079,237.266L38.199,237.327L38.325,237.389L38.45,237.45L38.573,237.508L38.701,237.568L38.829,237.628L38.955,237.685L39.08,237.741L39.206,237.797L39.335,237.853L39.466,237.909L39.595,237.963L39.724,238.016L39.85,238.067L39.981,238.119L40.112,238.17L40.243,238.22L40.375,238.27L40.507,238.319L40.638,238.367L40.768,238.413L40.902,238.459L41.036,238.505L41.166,238.549L41.302,238.593L41.438,238.637L41.571,238.679L41.707,238.721L41.842,238.761L41.979,238.802L42.115,238.841L42.25,238.879L42.389,238.917L42.527,238.954L42.662,238.989L42.8,239.024L42.94,239.059L43.079,239.092L43.217,239.124L43.356,239.156L43.497,239.187L43.638,239.217L43.78,239.247L43.922,239.275L44.06,239.302L44.202,239.329L44.346,239.355L44.49,239.38L44.632,239.404L44.776,239.428L44.92,239.45L45.064,239.472L45.209,239.493L45.355,239.513L45.5,239.531L45.644,239.549L45.792,239.567L45.938,239.583L46.086,239.598L46.234,239.613L46.381,239.627L46.53,239.639L46.679,239.651L46.828,239.662L46.98,239.672L47.129,239.681L47.277,239.689L47.429,239.696L47.582,239.702L47.733,239.708L47.887,239.712L48.038,239.716L48.191,239.718L48.346,239.719L48.539,239.72L164.476,239.72L164.601,239.72L164.697,239.719L164.796,239.718L164.899,239.717L164.997,239.715L165.093,239.713L165.19,239.71L165.291,239.707L165.388,239.704L165.485,239.7L165.584,239.696L165.68,239.691L165.778,239.686L165.877,239.681L165.971,239.675L166.066,239.669L166.163,239.663L166.264,239.655L166.356,239.648L166.453,239.641L166.549,239.633L166.643,239.624L166.742,239.615L166.835,239.606L166.93,239.597L167.024,239.587L167.117,239.577L167.214,239.566L167.309,239.555L167.402,239.544L167.497,239.532L167.591,239.519L167.682,239.507L167.777,239.494L167.874,239.481L167.965,239.467L168.056,239.454L168.149,239.439L168.244,239.424L168.335,239.41L168.427,239.394L168.52,239.378L168.611,239.362L168.704,239.346L168.795,239.329L168.887,239.312L168.978,239.294L169.07,239.277L169.161,239.258L169.252,239.24L169.342,239.221L169.435,239.201L169.524,239.182L169.614,239.162L169.706,239.141L169.795,239.121L169.883,239.1L169.971,239.079L170.062,239.057L170.15,239.036L170.24,239.013L170.333,238.989L170.42,238.967L170.506,238.944L170.595,238.92L170.684,238.896L170.772,238.872L170.864,238.846L170.949,238.822L171.036,238.796L171.126,238.77L171.211,238.745L171.297,238.719L171.386,238.691L171.472,238.664L171.561,238.636L171.647,238.609L171.731,238.581L171.819,238.553L171.904,238.524L171.991,238.495L172.078,238.465L172.162,238.436L172.245,238.407L172.334,238.375L172.42,238.344L172.502,238.314L172.59,238.282L172.676,238.25L172.756,238.219L172.84,238.187L172.924,238.155L173.011,238.12L173.094,238.088L173.173,238.056L173.262,238.02L173.349,237.984L173.427,237.952L173.508,237.918L173.592,237.882L173.677,237.846L173.762,237.809L173.837,237.776L173.916,237.741L174.008,237.7L174.09,237.663L174.164,237.629L174.247,237.591L174.333,237.551L174.414,237.513L174.489,237.477L174.569,237.438L174.654,237.397L174.739,237.355L174.818,237.316L174.892,237.279L174.97,237.239L175.054,237.196L175.135,237.155L175.213,237.114L175.291,237.073L175.368,237.032L175.45,236.988L175.527,236.947L175.607,236.903L175.686,236.86L175.764,236.816L176.96,236.146L178.233,235.585L178.33,235.543L178.425,235.499L178.525,235.454L178.616,235.412L178.711,235.368L178.805,235.323L178.897,235.279L178.993,235.233L179.084,235.188L179.181,235.14L179.274,235.094L179.364,235.048L179.458,235L179.549,234.952L179.643,234.903L179.734,234.855L179.822,234.808L179.914,234.758L180.013,234.704L180.1,234.656L180.187,234.607L180.278,234.556L180.368,234.504L180.461,234.451L180.551,234.399L180.638,234.347L180.727,234.295L180.818,234.24L180.904,234.188L180.992,234.134L181.082,234.078L181.169,234.024L181.254,233.97L181.345,233.912L181.431,233.857L181.517,233.801L181.604,233.744L181.687,233.689L181.777,233.628L181.86,233.572L181.943,233.515L182.032,233.454L182.118,233.395L182.202,233.335L182.287,233.275L182.364,233.22L182.449,233.159L182.538,233.094L182.616,233.037L182.7,232.974L182.783,232.912L182.867,232.848L182.95,232.784L183.026,232.726L183.109,232.661L183.192,232.597L183.269,232.536L183.352,232.469L183.434,232.403L183.509,232.341L183.59,232.275L183.667,232.211L183.743,232.148L183.823,232.08L183.905,232.011L183.987,231.94L184.062,231.875L184.137,231.809L184.211,231.744L184.291,231.673L184.366,231.605L184.439,231.539L184.518,231.467L184.594,231.397L184.667,231.328L184.739,231.261L184.82,231.184L184.893,231.115L184.959,231.051L185.037,230.975L185.109,230.904L185.183,230.83L185.254,230.759L185.319,230.694L185.398,230.613L185.47,230.54L185.54,230.468L185.612,230.392L185.683,230.318L185.747,230.249L185.818,230.173L185.888,230.098L185.952,230.027L186.028,229.943L186.097,229.867L186.161,229.796L186.225,229.722L186.293,229.645L186.361,229.566L186.425,229.492L186.494,229.411L186.561,229.332L186.623,229.258L186.686,229.182L186.753,229.101L186.82,229.019L186.881,228.943L186.942,228.867L187.004,228.789L187.068,228.707L187.135,228.621L187.196,228.542L187.249,228.472L187.315,228.386L187.38,228.299L187.433,228.228L187.491,228.148L187.557,228.059L187.615,227.978L187.673,227.897L187.73,227.816L187.788,227.734L187.846,227.65L187.903,227.569L187.96,227.485L188.017,227.401L188.073,227.317L188.124,227.24L188.185,227.147L188.241,227.061L188.291,226.984L188.346,226.898L188.401,226.811L188.45,226.733L188.504,226.645L188.559,226.555L188.607,226.477L188.66,226.388L188.714,226.297L188.767,226.208L188.814,226.127L188.861,226.045L188.913,225.954L188.965,225.862L189.011,225.779L189.057,225.696L189.108,225.603L189.154,225.518L189.2,225.433L189.25,225.339L189.299,225.244L189.343,225.159L189.383,225.081L189.432,224.985L189.48,224.889L189.519,224.811L189.562,224.723L189.609,224.625L189.652,224.535L189.69,224.456L189.736,224.357L189.778,224.267L189.819,224.177L189.861,224.085L189.897,224.003L189.941,223.903L189.981,223.81L190.021,223.718L190.056,223.635L190.095,223.542L190.138,223.438L190.173,223.353L190.207,223.268L190.245,223.173L190.283,223.078L190.32,222.981L190.356,222.886L190.389,222.798L190.422,222.711L190.457,222.614L190.493,222.516L190.524,222.428L190.559,222.328L190.59,222.239L190.62,222.149L190.654,222.049L190.687,221.948L190.717,221.857L190.746,221.766L190.778,221.663L190.807,221.571L190.835,221.479L190.863,221.387L190.894,221.282L190.921,221.188L190.948,221.095L190.974,220.999L191,220.904L191.029,220.798L191.054,220.703L191.077,220.617L191.102,220.519L191.129,220.411L191.153,220.314L191.174,220.227L191.197,220.128L191.222,220.018L191.242,219.929L191.264,219.83L191.286,219.729L191.305,219.639L191.328,219.526L191.349,219.425L191.367,219.334L191.384,219.242L191.404,219.138L191.423,219.035L191.439,218.942L191.457,218.837L191.475,218.732L191.492,218.627L191.507,218.532L191.522,218.436L191.538,218.329L191.551,218.233L191.565,218.136L191.58,218.028L191.594,217.919L191.606,217.821L191.618,217.722L191.629,217.623L191.641,217.512L191.652,217.412L191.662,217.311L191.673,217.199L191.682,217.108L191.69,217.006L191.7,216.892L191.708,216.789L191.715,216.686L191.722,216.582L191.729,216.477L191.735,216.372L191.741,216.266L191.746,216.16L191.751,216.053L191.755,215.946L191.759,215.85L191.762,215.741L191.765,215.621L191.767,215.523L191.769,215.414L191.77,215.303L191.771,215.204L191.771,215.059L191.771,131.587L191.771,131.488L191.77,131.424L191.77,131.373L191.768,131.322L191.767,131.26L191.765,131.211L191.762,131.151L191.76,131.092L191.757,131.045L191.754,130.988L191.751,130.942L191.747,130.886L191.742,130.831L191.737,130.777L191.733,130.723L191.728,130.681L191.722,130.617L191.716,130.566L191.711,130.527L191.704,130.465L191.697,130.415L191.691,130.367L191.682,130.307L191.675,130.26L191.668,130.213L191.66,130.167L191.651,130.11L191.641,130.054L191.633,130.01L191.625,129.967L191.614,129.913L191.603,129.859L191.595,129.818L191.584,129.766L191.572,129.714L191.563,129.674L191.551,129.624L191.537,129.563L191.525,129.514L191.515,129.477L191.503,129.429L191.487,129.371L191.474,129.324L191.461,129.278L191.448,129.232L191.435,129.188L191.422,129.143L191.405,129.088L191.388,129.035L191.374,128.992L191.361,128.95L191.347,128.909L191.329,128.856L191.311,128.804L191.293,128.754L191.275,128.705L191.261,128.666L191.246,128.628L191.223,128.568L191.205,128.52L191.19,128.484L191.171,128.437L191.148,128.38L191.129,128.334L191.114,128.3L191.09,128.244L191.07,128.2L191.051,128.157L191.027,128.104L191.007,128.06L190.987,128.018L190.967,127.977L190.942,127.926L190.918,127.876L190.897,127.836L190.877,127.795L190.852,127.746L190.826,127.698L190.801,127.65L190.775,127.603L190.755,127.566L190.729,127.519L190.703,127.473L190.677,127.428L190.651,127.383L190.626,127.339L190.599,127.295L190.573,127.251L190.547,127.208L190.52,127.166L190.488,127.115L190.462,127.074L190.436,127.034L190.404,126.984L190.376,126.942L190.351,126.904L190.318,126.856L190.285,126.808L190.253,126.763L190.227,126.725L190.2,126.688L190.166,126.641L190.134,126.598L190.102,126.554L190.068,126.508L190.035,126.466L190.003,126.425L189.97,126.382L189.943,126.348L189.909,126.306L189.87,126.257L189.837,126.217L189.799,126.171L189.766,126.132L189.732,126.092L189.7,126.054L189.665,126.015L189.625,125.969L189.587,125.927L189.555,125.891L189.52,125.853L189.475,125.805L189.442,125.77L189.408,125.733L189.364,125.687L189.324,125.646L189.29,125.612L189.256,125.577L189.211,125.533L189.173,125.496L189.138,125.461L189.092,125.417L189.054,125.381L189.015,125.345L188.97,125.303L188.929,125.266L188.895,125.235L188.849,125.194L188.805,125.155L188.766,125.121L188.726,125.086L188.682,125.049L188.637,125.011L188.595,124.976L188.556,124.945L188.512,124.908L188.467,124.872L188.421,124.837L188.376,124.801L188.338,124.772L188.292,124.737L188.245,124.702L188.197,124.666L188.152,124.633L188.11,124.602L188.066,124.571L188.016,124.536L187.97,124.503L187.925,124.473L187.877,124.44L187.831,124.409L187.786,124.379L187.739,124.349L187.69,124.317L187.642,124.286L187.595,124.256L187.549,124.228L187.502,124.2L187.451,124.169L187.399,124.138L187.352,124.11L187.307,124.084L187.256,124.055L187.207,124.027L187.156,123.999L187.102,123.969L187.057,123.945L187.007,123.918L186.954,123.891L186.908,123.867L186.854,123.84L186.805,123.815L186.755,123.79L186.7,123.764L186.649,123.74L186.596,123.715L186.547,123.692L186.496,123.668L186.441,123.644L186.389,123.621L186.337,123.598L186.286,123.576L186.232,123.554L186.179,123.532L186.126,123.511L186.074,123.49L186.021,123.469L185.965,123.448L185.909,123.427L185.859,123.408L185.804,123.388L185.746,123.368L185.694,123.349L185.64,123.331L185.587,123.313L185.53,123.295L185.475,123.277L185.419,123.259L185.361,123.241L185.307,123.225L185.253,123.209L185.193,123.192L185.138,123.177L185.082,123.161L185.025,123.146L184.971,123.132L184.911,123.117L184.853,123.102L184.797,123.089L184.738,123.075L184.679,123.062L184.624,123.05L184.566,123.037L184.504,123.024L184.448,123.013L184.391,123.002L184.328,122.99L184.267,122.979L184.211,122.969L184.15,122.959L184.09,122.949L184.03,122.94L183.967,122.93L183.912,122.922L183.85,122.914L183.785,122.905L183.725,122.898L183.664,122.891L183.601,122.884L183.539,122.877L183.476,122.871L183.414,122.865L183.352,122.86L183.289,122.855L183.227,122.851L183.16,122.846L183.096,122.842L183.034,122.839L182.968,122.836L182.901,122.833L182.837,122.831L182.774,122.829L182.708,122.828L182.64,122.827L182.573,122.826L182.465,122.826L155.035,122.826Z" style="fill:rgb(106,35,70);"/>
                    </g>
                    <circle id="Oval-1" cx="168.924" cy="36.776" r="36.076" style="fill:rgb(248,102,175);stroke:rgb(106,35,70);stroke-width:26px;"/>
                </g>
            </g>
        </g>
    </g>
</svg>
