<?xml version="1.0" standalone="no"?>
<!DOCTYPE svg PUBLIC "-//W3C//DTD SVG 20010904//EN"
 "http://www.w3.org/TR/2001/REC-SVG-20010904/DTD/svg10.dtd">
<svg version="1.0" xmlns="http://www.w3.org/2000/svg"
 width="1000.000000pt" height="1000.000000pt" viewBox="0 0 1000.000000 1000.000000"
 preserveAspectRatio="xMidYMid meet">
<metadata>
Created by potrace 1.11, written by Peter Selinger 2001-2013
</metadata>
<g transform="translate(0.000000,1000.000000) scale(0.100000,-0.100000)"
fill="#000000" stroke="none">
<path d="M4907 6706 c-54 -15 -107 -60 -134 -115 -16 -34 -17 -100 -16 -1008
l1 -972 -1217 2 -1216 2 -58 23 c-109 44 -200 136 -234 237 -24 71 -22 185 6
257 43 112 164 211 289 237 29 6 100 11 157 11 l105 0 0 659 0 660 -46 7 c-53
8 -262 -2 -379 -17 -372 -50 -733 -229 -1000 -496 -666 -667 -665 -1729 1
-2397 240 -240 550 -406 889 -475 188 -39 344 -42 1910 -38 1671 5 1540 -1
1689 74 99 50 210 163 260 263 66 136 66 132 66 958 l0 742 222 0 221 0 -7
-707 c-7 -763 -4 -828 41 -943 71 -178 223 -313 413 -367 61 -17 120 -18 880
-18 750 0 820 1 880 18 76 21 192 74 252 115 106 74 198 197 241 322 l22 65 3
1184 c2 1045 1 1190 -13 1244 -73 285 -308 469 -600 469 -172 0 -310 -56 -429
-175 -75 -75 -118 -143 -158 -250 l-23 -62 -3 -867 -3 -868 -174 0 -174 0 -3
763 -4 762 -23 65 c-71 200 -220 340 -416 390 -74 19 -111 20 -674 20 l-596 0
-49 50 c-102 104 -223 163 -373 180 -127 14 -467 12 -526 -4z"/>
<path d="M3660 6703 c-133 -20 -247 -79 -346 -177 -81 -82 -127 -160 -154
-265 -19 -70 -20 -112 -20 -713 l0 -638 610 0 610 0 0 900 0 900 -337 -1
c-186 -1 -349 -3 -363 -6z"/>
</g>
</svg>
